<?xml version="1.0" encoding="iso-8859-1"?>
<!-- Generator: Adobe Illustrator 18.0.0, SVG Export Plug-In . SVG Version: 6.00 Build 0)  -->
<!DOCTYPE svg PUBLIC "-//W3C//DTD SVG 1.1//EN" "http://www.w3.org/Graphics/SVG/1.1/DTD/svg11.dtd">
<svg version="1.1" id="Capa_1" xmlns="http://www.w3.org/2000/svg" xmlns:xlink="http://www.w3.org/1999/xlink" x="0px" y="0px"
	 viewBox="0 0 395.664 395.664" style="enable-background:new 0 0 395.664 395.664;" xml:space="preserve">
<g>
	<path d="M338.144,90.963c-35.558-27.021-82.553-41.901-132.326-41.901c-49.773,0-96.768,14.881-132.325,41.901
		c-37.092,28.187-57.52,66.14-57.52,106.869c0,19.5,4.655,38.322,13.856,56.084l-28.33,66.565
		c-2.468,5.798-1.861,12.447,1.614,17.703c3.475,5.256,9.356,8.418,15.656,8.418c0,0,185.973,0,187.048,0
		c49.773,0,96.768-14.881,132.326-41.901c37.093-28.187,57.52-66.14,57.52-106.869S375.237,119.15,338.144,90.963z M345.592,237.012
		c-7.126,13.238-17.773,25.297-31.649,35.84c-28.642,21.764-67.041,33.75-108.125,33.75c-0.837,0-154.939,0-154.939,0l15.757-37.022
		l7.377-17.335l-8.666-16.728c-6.219-12.007-9.373-24.686-9.373-37.685c0-13.58,3.389-26.762,10.072-39.18
		c7.125-13.238,17.773-25.297,31.648-35.841c28.64-21.763,67.039-33.749,108.124-33.749c41.086,0,79.485,11.986,108.125,33.75
		c13.876,10.544,24.523,22.602,31.649,35.841c6.684,12.418,10.072,25.6,10.072,39.18
		C355.664,211.412,352.276,224.594,345.592,237.012z"/>
</g>
</svg>
