<svg xmlns="http://www.w3.org/2000/svg" width="119.366" height="52.06" viewBox="0 0 119.366 52.06"><defs><style>.a{fill:#e27866;}.b{fill:#fff;}</style></defs><g transform="translate(1.903 45.933)"><path class="a" d="M6.28,82.317h.643v4.594H6.28V84.79H4.033v2.121H3.39V82.317h.643v1.916H6.28Z" transform="translate(-3.39 -82.032)"/><path class="a" d="M11.136,88.451a1.116,1.116,0,0,0,.19.063.872.872,0,0,0,.229.03.9.9,0,0,0,.57-.163,1.4,1.4,0,0,0,.372-.527q-.419-.8-.779-1.687a14.775,14.775,0,0,1-.6-1.807h.663q.073.3.176.643t.229.709q.126.365.272.73c.1.243.2.477.3.7q.252-.7.438-1.38t.351-1.4h.637q-.238.974-.531,1.872t-.63,1.681a3.549,3.549,0,0,1-.275.514,1.534,1.534,0,0,1-.316.354,1.134,1.134,0,0,1-.387.205,1.651,1.651,0,0,1-.488.067,1.2,1.2,0,0,1-.152-.01c-.053-.007-.1-.016-.155-.026s-.1-.024-.14-.037a.571.571,0,0,1-.089-.033Z" transform="translate(-6.737 -82.928)"/></svg>
