<?xml version="1.0" encoding="iso-8859-1"?>
<!-- Generator: Adobe Illustrator 18.0.0, SVG Export Plug-In . SVG Version: 6.00 Build 0)  -->
<!DOCTYPE svg PUBLIC "-//W3C//DTD SVG 1.1//EN" "http://www.w3.org/Graphics/SVG/1.1/DTD/svg11.dtd">
<svg version="1.1" id="Capa_1" xmlns="http://www.w3.org/2000/svg" xmlns:xlink="http://www.w3.org/1999/xlink" x="0px" y="0px"
	 viewBox="0 0 297 297" style="enable-background:new 0 0 297 297;" xml:space="preserve">
<g>
	<path d="M187.543,209.524c5.433-0.452,10.564-0.878,14.127-2.94c3.648-2.109,6.588-6.371,9.701-10.883
		c2.414-3.497,4.91-7.113,8.073-10.277c3.164-3.163,6.78-5.659,10.277-8.073c4.512-3.113,8.773-6.054,10.884-9.701
		c2.062-3.564,2.487-8.694,2.939-14.127c0.355-4.266,0.721-8.678,1.892-13.061c1.128-4.22,2.983-8.121,4.776-11.894
		c2.375-4.995,4.618-9.714,4.618-14.089c0-4.376-2.243-9.094-4.618-14.089c-1.794-3.772-3.648-7.674-4.776-11.893
		c-1.171-4.383-1.537-8.795-1.892-13.06c-0.452-5.433-0.878-10.564-2.94-14.127c-2.109-3.647-6.37-6.588-10.881-9.701
		c-3.498-2.415-7.115-4.911-10.278-8.075c-3.162-3.162-5.658-6.778-8.072-10.275c-3.114-4.512-6.056-8.774-9.703-10.883
		c-3.563-2.062-8.693-2.488-14.126-2.94c-4.267-0.355-8.679-0.722-13.061-1.893c-4.22-1.128-8.121-2.982-11.894-4.776
		c-4.995-2.375-9.713-4.618-14.089-4.618c-4.375,0-9.093,2.243-14.087,4.618c-3.773,1.794-7.675,3.648-11.895,4.776
		c-4.383,1.171-8.795,1.538-13.062,1.893c-5.433,0.452-10.563,0.879-14.126,2.94c-3.647,2.109-6.588,6.371-9.702,10.882
		c-2.414,3.497-4.909,7.114-8.072,10.277c-3.163,3.163-6.78,5.659-10.277,8.072c-4.512,3.114-8.773,6.056-10.884,9.703
		c-2.061,3.562-2.487,8.693-2.94,14.125c-0.354,4.268-0.722,8.68-1.893,13.063c-1.128,4.22-2.982,8.121-4.776,11.895
		c-2.375,4.994-4.618,9.712-4.618,14.087c0,4.376,2.243,9.095,4.619,14.09c1.793,3.773,3.648,7.673,4.775,11.893
		c1.172,4.383,1.538,8.794,1.893,13.061c0.452,5.433,0.878,10.563,2.941,14.127c2.109,3.646,6.37,6.588,10.882,9.701
		c3.497,2.414,7.114,4.91,10.277,8.073c3.163,3.163,5.659,6.78,8.072,10.277c3.114,4.512,6.056,8.773,9.703,10.884
		c3.563,2.062,8.694,2.487,14.127,2.939c4.266,0.354,8.678,0.721,13.061,1.892c4.219,1.128,8.12,2.982,11.893,4.776
		c4.995,2.375,9.713,4.618,14.089,4.618c4.376,0,9.095-2.243,14.091-4.618c3.771-1.794,7.673-3.648,11.892-4.776
		C178.865,210.244,183.277,209.878,187.543,209.524z M148.5,177.166c-34.565,0-62.687-28.121-62.687-62.687
		s28.121-62.688,62.687-62.688c34.566,0,62.688,28.121,62.688,62.688S183.066,177.166,148.5,177.166z"/>
	<path d="M253.976,174.449c-3.8,6.565-10.321,11.511-15.734,15.247c-3.081,2.127-5.992,4.136-8.191,6.335
		c-2.199,2.198-4.208,5.109-6.335,8.19c-3.735,5.413-7.97,11.547-14.535,15.346c-6.478,3.748-13.872,4.363-20.396,4.905
		c-3.775,0.314-7.342,0.61-10.43,1.436c-2.892,0.772-7.73,3.068-11.037,4.641l54.642,54.643c2.385,2.384,5.58,3.66,8.84,3.66
		c1.408,0,2.829-0.237,4.201-0.727c4.548-1.626,7.754-5.724,8.233-10.531l3.728-37.398l39.171-5.154
		c4.717-0.621,8.674-3.868,10.203-8.372c1.531-4.507,0.368-9.491-2.996-12.855L253.976,174.449z"/>
	<path d="M148.5,66.791c-26.294,0-47.687,21.392-47.687,47.688c0,26.295,21.393,47.687,47.687,47.687
		c26.295,0,47.688-21.393,47.688-47.687C196.187,88.184,174.795,66.791,148.5,66.791z"/>
	<path d="M129.683,230.549c-3.309-1.573-8.146-3.869-11.038-4.642c-3.088-0.824-6.654-1.121-10.43-1.435
		c-6.524-0.542-13.919-1.157-20.396-4.904c-6.565-3.8-10.8-9.934-14.536-15.347c-2.127-3.081-4.136-5.992-6.335-8.19
		c-2.199-2.199-5.109-4.208-8.19-6.335c-5.413-3.736-11.934-8.682-15.733-15.247L3.66,213.814
		c-3.364,3.365-4.527,8.349-2.996,12.855c1.529,4.505,5.486,7.752,10.203,8.372l39.171,5.154l3.728,37.398
		c0.479,4.807,3.684,8.905,8.233,10.531c1.372,0.49,2.793,0.727,4.201,0.727c3.26,0,6.454-1.276,8.84-3.66L129.683,230.549z"/>
</g>
</svg>
